<svg width="18" height="21" viewBox="0 0 18 21" fill="none" xmlns="http://www.w3.org/2000/svg">
<g clip-path="url(#clip0)">
<path d="M9 8.14252C8.57616 8.14268 8.16189 8.26851 7.80956 8.50409C7.45723 8.73968 7.18267 9.07444 7.02058 9.46606C6.8585 9.85768 6.81617 10.2886 6.89896 10.7042C6.98174 11.1199 7.18592 11.5017 7.48567 11.8013C7.78542 12.101 8.16729 12.305 8.583 12.3876C8.9987 12.4703 9.42957 12.4278 9.82113 12.2656C10.2127 12.1033 10.5473 11.8286 10.7828 11.4762C11.0183 11.1238 11.1439 10.7095 11.1439 10.2856C11.1435 9.71724 10.9175 9.17226 10.5155 8.77041C10.1135 8.36857 9.5684 8.14273 9 8.14252ZM14.0107 6.4952C13.9016 6.21871 13.7368 5.96758 13.5266 5.7574C13.3165 5.54722 13.0653 5.38247 12.7888 5.27337C11.9451 4.94029 9.93616 5.01502 9 5.01502C8.06384 5.01502 6.05692 4.93747 5.21076 5.27337C4.93427 5.38247 4.68314 5.54722 4.47296 5.7574C4.26278 5.96758 4.09803 6.21871 3.98893 6.4952C3.65625 7.33895 3.73058 9.34988 3.73058 10.2852C3.73058 11.2206 3.65625 13.2291 3.99054 14.0757C4.09964 14.3522 4.26439 14.6033 4.47457 14.8135C4.68475 15.0237 4.93587 15.1884 5.21237 15.2975C6.05612 15.6306 8.06504 15.5559 9.00161 15.5559C9.93817 15.5559 11.9443 15.6334 12.7904 15.2975C13.0669 15.1884 13.3181 15.0237 13.5282 14.8135C13.7384 14.6033 13.9032 14.3522 14.0123 14.0757C14.3478 13.2319 14.2706 11.221 14.2706 10.2856C14.2706 9.35029 14.3478 7.34216 14.0123 6.4956L14.0107 6.4952ZM9 13.5803C8.34838 13.5803 7.7114 13.3871 7.16959 13.025C6.62779 12.663 6.20551 12.1485 5.95615 11.5464C5.70678 10.9444 5.64154 10.282 5.76866 9.64289C5.89579 9.00379 6.20957 8.41674 6.67034 7.95598C7.1311 7.49522 7.71815 7.18143 8.35725 7.05431C8.99635 6.92718 9.65879 6.99243 10.2608 7.24179C10.8628 7.49115 11.3774 7.91344 11.7394 8.45524C12.1014 8.99704 12.2946 9.63402 12.2946 10.2856C12.2952 10.7185 12.2103 11.1471 12.0449 11.5471C11.8795 11.947 11.6369 12.3104 11.3308 12.6165C11.0248 12.9225 10.6614 13.1652 10.2614 13.3306C9.86147 13.496 9.43281 13.5808 9 13.5803ZM12.4304 7.6218C12.2783 7.62188 12.1296 7.57685 12.0031 7.4924C11.8766 7.40794 11.7779 7.28787 11.7197 7.14736C11.6614 7.00684 11.6461 6.85221 11.6758 6.70301C11.7054 6.5538 11.7786 6.41674 11.8861 6.30915C11.9937 6.20156 12.1307 6.12828 12.2799 6.09857C12.4291 6.06887 12.5837 6.08408 12.7242 6.14227C12.8648 6.20046 12.9849 6.29903 13.0694 6.4255C13.1539 6.55197 13.1991 6.70067 13.1991 6.85279C13.1995 6.9538 13.18 7.0539 13.1416 7.14736C13.1033 7.24081 13.0468 7.32577 12.9756 7.39736C12.9043 7.46896 12.8196 7.52578 12.7263 7.56457C12.6331 7.60336 12.5331 7.62336 12.4321 7.62341L12.4304 7.6218ZM16.0714 1.28564H1.92857C1.41708 1.28564 0.926543 1.48883 0.564865 1.85051C0.203188 2.21219 0 2.70273 0 3.21422L0 17.3571C0 17.8686 0.203188 18.3591 0.564865 18.7208C0.926543 19.0825 1.41708 19.2856 1.92857 19.2856H16.0714C16.5829 19.2856 17.0735 19.0825 17.4351 18.7208C17.7968 18.3591 18 17.8686 18 17.3571V3.21422C18 2.70273 17.7968 2.21219 17.4351 1.85051C17.0735 1.48883 16.5829 1.28564 16.0714 1.28564ZM15.3836 12.9374C15.3317 13.9672 15.0967 14.8797 14.345 15.6294C13.5932 16.3791 12.6816 16.619 11.653 16.668C10.5919 16.7279 7.41054 16.7279 6.34942 16.668C5.31964 16.6162 4.4104 16.3807 3.65746 15.6294C2.90451 14.8781 2.66786 13.9652 2.61884 12.9374C2.55897 11.8759 2.55897 8.69417 2.61884 7.63386C2.67067 6.60408 2.9029 5.69163 3.65746 4.94189C4.41201 4.19216 5.32366 3.95511 6.34942 3.90609C7.41054 3.84622 10.5919 3.84622 11.653 3.90609C12.6828 3.95792 13.5948 4.19337 14.345 4.94471C15.0951 5.69605 15.3346 6.6089 15.3836 7.63868C15.4434 8.69618 15.4434 11.8751 15.3836 12.9374Z" fill="#52AB98"/>
</g>
<defs>
<clipPath id="clip0">
<rect width="18" height="20.5714" fill="white"/>
</clipPath>
</defs>
</svg>
