<svg width="18" height="21" viewBox="0 0 18 21" fill="none" xmlns="http://www.w3.org/2000/svg">
<g clip-path="url(#clip0)">
<path d="M16.0714 1.28564H1.92857C1.41708 1.28564 0.926543 1.48883 0.564865 1.85051C0.203188 2.21219 0 2.70273 0 3.21422L0 17.3571C0 17.8686 0.203188 18.3591 0.564865 18.7208C0.926543 19.0825 1.41708 19.2856 1.92857 19.2856H16.0714C16.5829 19.2856 17.0735 19.0825 17.4351 18.7208C17.7968 18.3591 18 17.8686 18 17.3571V3.21422C18 2.70273 17.7968 2.21219 17.4351 1.85051C17.0735 1.48883 16.5829 1.28564 16.0714 1.28564ZM15.4129 13.6353L14.8102 16.2469C14.7796 16.3797 14.7049 16.4982 14.5983 16.5831C14.4917 16.6679 14.3595 16.7142 14.2232 16.7142C7.79464 16.7142 2.57143 11.5027 2.57143 5.06243C2.57621 4.92745 2.62419 4.79757 2.70831 4.6919C2.79242 4.58623 2.90824 4.51035 3.03871 4.47542L5.65031 3.87274C5.69486 3.86332 5.74019 3.85808 5.78571 3.85707C5.90226 3.86296 6.0151 3.89993 6.11253 3.96415C6.20997 4.02837 6.28843 4.11751 6.33978 4.2223L7.54513 7.0348C7.57466 7.11063 7.59109 7.19092 7.59375 7.27225C7.58394 7.45066 7.50461 7.61812 7.37277 7.73872L5.8504 8.98426C6.77283 10.9393 8.34633 12.5128 10.3014 13.4352L11.5469 11.9129C11.6675 11.781 11.835 11.7017 12.0134 11.6919C12.0947 11.6945 12.175 11.7109 12.2508 11.7405L15.0633 12.9459C15.1682 12.9971 15.2574 13.0756 15.3216 13.173C15.3858 13.2705 15.4228 13.3834 15.4286 13.4999C15.4278 13.5455 15.4225 13.5908 15.4129 13.6353Z" fill="#52AB98"/>
</g>
<defs>
<clipPath id="clip0">
<rect width="18" height="20.5714" fill="white"/>
</clipPath>
</defs>
</svg>
