<svg width="1440" height="625" viewBox="0 0 1440 625" fill="none" xmlns="http://www.w3.org/2000/svg">
<g clip-path="url(#clip0)">
<rect width="1440" height="625" fill="white"/>
<g clip-path="url(#clip1)">
<path d="M1440 549H-12V641H1440V549Z" fill="white"/>
<path d="M-12 594.54C36.4 595.184 133.2 606.868 230 597.76C326.8 588.652 375.2 546.148 472 549C568.8 551.852 617.2 602.912 714 612.02C810.8 621.128 859.2 597.392 956 594.54C1052.8 591.688 1101.2 601.716 1198 597.76C1294.8 593.804 1391.6 579.36 1440 574.76V641H-12V594.54Z" fill="#52AB98"/>
</g>
<path d="M143.625 494.104C192.321 491.413 236.533 467.269 260.324 426.873C283.538 387.456 279.924 340.412 257.634 300.519C233.642 257.581 194.844 218.991 143.625 218.02C91.0152 217.023 48.7577 253.378 21.4441 296.043C-7.19569 340.779 -27.1343 396.046 0.732774 441.219C28.409 486.084 88.9195 497.127 143.625 494.104Z" fill="url(#paint0_linear)" fill-opacity="0.5"/>
<path d="M-150.747 304.89C-150.747 353.13 -130.545 399.395 -94.5862 433.506C-58.6274 467.617 -9.85665 486.78 40.9969 486.78C91.8504 486.78 140.621 467.617 176.58 433.506C212.539 399.395 232.74 353.13 232.74 304.89C232.74 256.65 212.539 210.385 176.58 176.274C140.621 142.163 91.8504 123 40.9969 123C-9.85665 123 -58.6274 142.163 -94.5862 176.274C-130.545 210.385 -150.747 256.65 -150.747 304.89V304.89Z" fill="url(#paint1_linear)" fill-opacity="0.4"/>
<path d="M628.287 463C628.287 482.891 636.617 501.968 651.444 516.033C666.271 530.098 686.381 538 707.35 538C728.319 538 748.429 530.098 763.256 516.033C778.083 501.968 786.413 482.891 786.413 463C786.413 443.109 778.083 424.032 763.256 409.967C748.429 395.902 728.319 388 707.35 388C686.381 388 666.271 395.902 651.444 409.967C636.617 424.032 628.287 443.109 628.287 463V463Z" fill="url(#paint2_linear)" fill-opacity="0.3"/>
<path d="M373.177 389.814L416.202 508.345L541.155 467.531L498.13 349L373.177 389.814Z" fill="url(#paint3_linear)" fill-opacity="0.3"/>
<path d="M742.781 578.555C765.692 577.741 787.206 567.765 798.924 549.072C810.905 529.957 811.765 506.22 800.272 486.837C788.555 467.078 766.626 455.928 742.781 454.393C715.302 452.625 684.374 456.176 669.981 478.452C655.15 501.405 662.734 531.177 678.85 553.337C692.897 572.652 718.062 579.433 742.781 578.555Z" fill="url(#paint4_linear)" fill-opacity="0.4"/>
</g>
<defs>
<linearGradient id="paint0_linear" x1="229.673" y1="273.697" x2="1.62026" y2="382.736" gradientUnits="userSpaceOnUse">
<stop stop-color="#52AB98"/>
<stop offset="1" stop-color="#45AAB8"/>
</linearGradient>
<linearGradient id="paint1_linear" x1="171.054" y1="196.259" x2="-130.711" y2="341.931" gradientUnits="userSpaceOnUse">
<stop stop-color="#52AB98"/>
<stop offset="1" stop-color="#45AAB8"/>
</linearGradient>
<linearGradient id="paint2_linear" x1="760.978" y1="418.208" x2="636.549" y2="478.273" gradientUnits="userSpaceOnUse">
<stop stop-color="#52AB98"/>
<stop offset="1" stop-color="#45AAB8"/>
</linearGradient>
<linearGradient id="paint3_linear" x1="514.134" y1="381.09" x2="381.953" y2="444.897" gradientUnits="userSpaceOnUse">
<stop stop-color="#52AB98"/>
<stop offset="1" stop-color="#45AAB8"/>
</linearGradient>
<linearGradient id="paint4_linear" x1="784.871" y1="479.098" x2="674.702" y2="538.36" gradientUnits="userSpaceOnUse">
<stop stop-color="#52AB98"/>
<stop offset="1" stop-color="#45AAB8"/>
</linearGradient>
<clipPath id="clip0">
<rect width="1440" height="625" fill="white"/>
</clipPath>
<clipPath id="clip1">
<rect width="1452" height="92" fill="white" transform="translate(-12 549)"/>
</clipPath>
</defs>
</svg>
